<?xml version="1.0" encoding="UTF-8" standalone="no"?>
<svg width="581px" height="160px" viewBox="0 0 581 160" version="1.1" xmlns="http://www.w3.org/2000/svg" xmlns:xlink="http://www.w3.org/1999/xlink">
    <!-- Generator: Sketch 40.3 (33839) - http://www.bohemiancoding.com/sketch -->
    <title>Benoo Logo White</title>
    <desc>Created with Sketch.</desc>
    <defs></defs>
    <g id="Page-1" stroke="none" stroke-width="1" fill="none" fill-rule="evenodd" fill-opacity="0.9">
        <g id="Benoo-Logo-White" fill="#FFFFFF">
            <g id="Group-67" transform="translate(5.000000, 5.000000)">
                <path d="M0.0100749346,149.741022 L149.454183,149.741022 L149.454183,0.0437945959 L0.0100749346,0.0437945959 L0.0100749346,149.741022 Z M140.781226,46.9660545 L91.812991,46.9660545 C90.510499,46.1941748 89.164287,45.4843373 87.7561383,44.8931103 L140.781226,13.0891098 L140.781226,46.9660545 Z M74.9698565,100.20386 C61.4294046,100.20386 50.415605,89.1694467 50.415605,75.6077202 C50.415605,62.0441689 61.4294046,51.0097555 74.9698565,51.0097555 C88.5103085,51.0097555 99.5259297,62.0441689 99.5259297,75.6077202 C99.5259297,89.1694467 88.5103085,100.20386 74.9698565,100.20386 L74.9698565,100.20386 Z M75.1465582,42.3311264 C75.0864432,42.3311264 75.0281499,42.3238273 74.9698565,42.3238273 C73.051641,42.3238273 71.1844322,42.520903 69.3536567,42.8365891 L90.515964,8.72972277 L131.17011,8.72972277 L75.1465582,42.3311264 Z M55.5180947,48.6795181 C54.9989195,49.0554217 54.4779227,49.425851 53.9824293,49.830951 L53.9824293,8.72972277 L80.3073413,8.72972277 L55.5180947,48.6795181 Z M45.309472,60.6883612 C45.0489736,61.2047725 44.7866535,61.7248333 44.5534801,62.2576676 L12.0658681,8.72972277 L45.309472,8.72972277 L45.309472,60.6883612 Z M41.7991194,74.4435139 C41.7881894,74.8340157 41.7426477,75.2135688 41.7426477,75.6077202 C41.7426477,76.7500292 41.7991194,77.8777401 41.9138844,78.9908527 L8.68303224,58.080758 L8.68303224,19.8754474 L41.7991194,74.4435139 Z M45.9652721,91.8025968 C46.4826256,92.7259329 47.0382341,93.6218973 47.6357409,94.4868406 L8.68303224,94.4868406 L8.68303224,68.3396421 L45.9652721,91.8025968 Z M8.68303224,103.174594 L56.3724566,103.174594 C57.3816602,103.860709 58.4382271,104.477483 59.5221191,105.052287 L8.68303224,139.396374 L8.68303224,103.174594 Z M69.9620935,108.47374 C71.601594,108.720084 73.2647761,108.891613 74.9698565,108.891613 L74.9862515,108.891613 L57.6785919,141.053269 L21.7352774,141.053269 L69.9620935,108.47374 Z M85.8397444,107.024868 C88.9802986,105.931828 91.8986094,104.38077 94.5327401,102.451983 L94.5327401,141.053269 L67.5283462,141.053269 L85.8397444,107.024868 Z M103.203876,93.0671658 C103.764949,92.1620774 104.280481,91.2314423 104.752293,90.2716107 L136.283529,141.053269 L103.203876,141.053269 L103.203876,93.0671658 Z M108.014899,79.0747924 C108.133307,77.9343081 108.197065,76.7774009 108.197065,75.6077202 C108.197065,73.7336765 108.00579,71.9089016 107.707037,70.1206223 L140.781226,90.8391157 L140.781226,131.849105 L108.014899,79.0747924 Z M101.97425,56.2870043 C101.82123,56.0716809 101.660924,55.8636566 101.502439,55.6538075 L140.781226,55.6538075 L140.781226,80.5966546 L101.97425,56.2870043 Z" id="Fill-60"></path>
                <path d="M226.976322,80.1621757 L226.976322,112.550104 L244.819551,112.550104 C251.226355,112.550104 255.977263,111.124955 259.079562,108.271007 C262.180039,105.422534 263.7321,101.60328 263.7321,96.8150708 C263.7321,91.4173868 261.950509,87.2915709 258.392793,84.4394479 C254.833256,81.5891496 250.361063,80.1621757 244.972571,80.1621757 L226.976322,80.1621757 Z M244.515333,64.4271424 C246.4463,64.4271424 248.377267,64.1205802 250.310056,63.5092806 C252.241023,62.8979811 253.993467,61.9819441 255.571031,60.759345 C257.146773,59.5367458 258.418297,57.987512 259.38378,56.09887 C260.349264,54.2157024 260.833827,52.0004258 260.833827,49.4548649 C260.833827,47.7249784 260.578794,46.0443607 260.070549,44.413012 C259.562304,42.7853129 258.748018,41.3565142 257.631336,40.1357399 C256.511011,38.9149655 255.037282,37.9204632 253.206507,37.1577073 C251.379375,36.3931267 249.091361,36.0117487 246.346108,36.0117487 L226.976322,36.0117487 L226.976322,64.4271424 L244.515333,64.4271424 Z M219.80624,128.131856 C217.062809,128.131856 214.774795,127.243191 212.945841,125.458561 C211.115066,123.679406 210.198767,121.513398 210.198767,118.966012 L210.198767,29.5958404 C210.198767,26.9480922 211.138747,24.7601872 213.02053,23.0248263 C214.90049,21.2949398 217.163001,20.4299965 219.80624,20.4299965 L245.58283,20.4299965 C250.867486,20.4299965 255.520024,21.2456708 259.5368,22.87337 C263.551755,24.5028939 266.907266,26.6689016 269.601511,29.3659188 C272.295757,32.0665856 274.303234,35.1468055 275.627586,38.6084033 C276.948295,42.0718259 277.60956,45.6356112 277.60956,49.3015838 C277.60956,52.257719 277.152322,54.9036425 276.237845,57.2448286 C275.321546,59.5914891 274.075526,61.7027535 272.499784,63.5859212 C270.92222,65.4709136 269.044081,67.1259843 266.858081,68.5511335 C264.670258,69.9781074 262.307556,71.2499754 259.76633,72.3703872 C262.205543,73.2864241 264.646577,74.3557422 267.087611,75.5783413 C269.526823,76.8009405 271.738327,78.3556486 273.720301,80.2388162 C275.704096,82.1238086 277.329023,84.4157258 278.600547,87.1145678 C279.870249,89.8134098 280.507832,93.0487355 280.507832,96.8150708 C280.507832,101.19453 279.691726,105.292975 278.066798,109.112228 C276.44005,112.931482 274.075526,116.241624 270.975048,119.042653 C267.872749,121.845507 264.134688,124.060784 259.76633,125.688483 C255.394329,127.318007 250.463076,128.131856 244.972571,128.131856 L219.80624,128.131856 Z" id="Fill-62"></path>
                <path d="M330.836124,74.6628518 C330.836124,70.5899544 329.845137,67.6867376 327.861341,65.9550263 C325.879368,64.223315 323.004777,63.3583717 319.244856,63.3583717 C314.974868,63.3583717 311.670364,64.4276898 309.331343,66.5663259 C306.990501,68.7031372 305.824634,71.606354 305.824634,75.2741514 L305.824634,84.2867142 C308.467873,84.5914516 311.085609,84.8213733 313.677841,84.9728296 C316.271895,85.1261107 318.12453,85.2027512 319.244856,85.2027512 C323.615035,85.2027512 326.640824,84.2629922 328.31858,82.3779998 C329.996335,80.4930074 330.836124,77.9218996 330.836124,74.6628518 M319.397876,98.0363926 C317.262882,98.0363926 315.07506,97.9615768 312.839874,97.8082957 C310.602867,97.6550146 308.263846,97.3739993 305.824634,96.9670745 L305.824634,103.994282 C305.824634,107.45953 306.990501,110.207641 309.331343,112.244089 C311.670364,114.282363 315.279086,115.300587 320.161154,115.300587 C323.004777,115.300587 325.547824,114.942931 327.784831,114.231269 C330.021839,113.519607 332.410044,112.601745 334.953092,111.481333 C335.155297,111.276959 335.537847,111.098131 336.097099,110.946674 C336.654529,110.793393 337.394126,110.716753 338.310424,110.716753 C340.951842,110.716753 342.859127,111.481333 344.026816,113.00867 C345.196326,114.536007 345.781081,116.063343 345.781081,117.59068 C345.781081,119.935515 344.790094,121.84423 342.80812,123.320473 C340.824325,124.79854 338.436119,125.993768 335.63986,126.909805 C332.843601,127.827666 329.894322,128.460863 326.793844,128.820344 C323.691545,129.176175 321.022803,129.355003 318.787617,129.355003 C314.109576,129.355003 309.941602,128.690785 306.281872,127.369648 C302.622143,126.044861 299.543526,124.212787 297.053307,121.867952 C294.561266,119.526766 292.655802,116.749458 291.335093,113.543329 C290.012563,110.335375 289.353119,106.897499 289.353119,103.229702 L289.353119,76.1901883 C289.353119,72.4220283 290.012563,68.9330588 291.335093,65.7251047 C292.655802,62.5171505 294.588591,59.7434928 297.129817,57.3986572 C299.671042,55.057471 302.824348,53.1980255 306.586091,51.8221453 C310.346012,50.4462651 314.668828,49.7619745 319.550896,49.7619745 C328.801322,49.7619745 335.71637,52.0776138 340.290576,56.710717 C344.866604,61.3474699 347.154618,67.4805381 347.154618,75.1208703 C347.154618,82.3542777 344.966796,87.9800585 340.596616,92.0018622 C336.222794,96.0254907 329.158368,98.0363926 319.397876,98.0363926" id="Fill-63"></path>
                <path d="M377.045079,121.563397 C377.045079,123.702033 376.358311,125.510385 374.986595,126.986628 C373.613058,128.461046 371.554574,129.201904 368.809322,129.201904 C366.065891,129.201904 364.005586,128.461046 362.63387,126.986628 C361.260333,125.510385 360.573565,123.702033 360.573565,121.563397 L360.573565,72.5225734 C360.573565,70.8948743 360.522558,69.5956346 360.422367,68.6266791 C360.318532,67.6613733 360.165511,66.8967926 359.963306,66.334762 C359.75928,65.7782056 359.531571,65.3420845 359.27836,65.0373471 C359.021505,64.7307849 358.793796,64.3767786 358.591591,63.968029 C357.981333,63.051992 357.524094,62.2874114 357.218054,61.6779366 C356.913836,61.066637 356.760816,60.3020564 356.760816,59.3860194 C356.760816,57.3495707 357.498591,55.6689531 358.972319,54.3423418 C360.446048,53.01938 362.353334,52.3569868 364.692354,52.3569868 C367.535977,52.3569868 369.927826,53.8350544 371.858793,56.7875401 C375.316317,54.446354 378.84853,52.7383647 382.460896,51.6690467 C386.067797,50.5997286 389.550824,50.0650696 392.906335,50.0650696 C401.752351,50.0650696 408.386863,52.7657363 412.80987,58.1634203 C417.232878,63.562929 419.442561,70.6412306 419.442561,79.398325 L419.442561,121.563397 C419.442561,123.702033 418.73211,125.510385 417.309388,126.986628 C415.883023,128.461046 413.850042,129.201904 411.208625,129.201904 C408.563564,129.201904 406.530584,128.461046 405.107862,126.986628 C403.683318,125.510385 402.971046,123.702033 402.971046,121.563397 L402.971046,79.398325 C402.971046,74.5097532 401.929053,70.7415932 399.846887,68.0920201 C397.761078,65.4460966 394.786296,64.1213101 390.924361,64.1213101 C386.55236,64.1213101 381.774127,65.7015651 376.587841,68.8566008 C376.892059,70.2835747 377.045079,71.5061738 377.045079,72.5225734 L377.045079,121.563397 Z" id="Fill-64"></path>
                <path d="M464.890606,114.841839 C469.667017,114.841839 473.252058,113.670333 475.642085,111.327322 C478.030291,108.986136 479.225304,105.727089 479.225304,101.550179 L479.225304,77.2587765 C479.225304,73.1877038 478.030291,69.9779249 475.642085,67.634914 C473.252058,65.2937279 469.667017,64.1203977 464.890606,64.1203977 C460.110551,64.1203977 456.52551,65.2937279 454.139126,67.634914 C451.747277,69.9779249 450.554085,73.1877038 450.554085,77.2587765 L450.554085,101.550179 C450.554085,105.727089 451.747277,108.986136 454.139126,111.327322 C456.52551,113.670333 460.110551,114.841839 464.890606,114.841839 M464.890606,129.354273 C459.804511,129.354273 455.357821,128.640786 451.545072,127.215637 C447.732323,125.790488 444.529832,123.83068 441.935778,121.334388 C439.345367,118.838096 437.385253,115.88561 436.066366,112.473281 C434.742014,109.062777 434.082571,105.422351 434.082571,101.550179 L434.082571,77.4120576 C434.082571,73.4413475 434.742014,69.7735501 436.066366,66.4123149 C437.385253,63.0510797 439.345367,60.1259656 441.935778,57.6278489 C444.529832,55.1333817 447.732323,53.1735735 451.545072,51.7465996 C455.357821,50.3214505 459.804511,49.6079635 464.890606,49.6079635 C469.869222,49.6079635 474.29223,50.3214505 478.157807,51.7465996 C482.021564,53.1735735 485.251379,55.1333817 487.843612,57.6278489 C490.434022,60.1259656 492.392315,63.0510797 493.714845,66.4123149 C495.035554,69.7735501 495.696819,73.4413475 495.696819,77.4120576 L495.696819,101.550179 C495.696819,105.422351 495.035554,109.062777 493.714845,112.473281 C492.392315,115.88561 490.434022,118.838096 487.843612,121.334388 C485.251379,123.83068 482.021564,125.790488 478.157807,127.215637 C474.29223,128.640786 469.869222,129.354273 464.890606,129.354273" id="Fill-65"></path>
                <path d="M537.179095,114.841839 C541.957327,114.841839 545.542368,113.670333 547.930574,111.327322 C550.31878,108.986136 551.515615,105.727089 551.515615,101.550179 L551.515615,77.2587765 C551.515615,73.1877038 550.31878,69.9779249 547.930574,67.634914 C545.542368,65.2937279 541.957327,64.1203977 537.179095,64.1203977 C532.39904,64.1203977 528.813999,65.2937279 526.427615,67.634914 C524.037588,69.9779249 522.842574,73.1877038 522.842574,77.2587765 L522.842574,101.550179 C522.842574,105.727089 524.037588,108.986136 526.427615,111.327322 C528.813999,113.670333 532.39904,114.841839 537.179095,114.841839 M537.179095,129.354273 C532.094821,129.354273 527.648132,128.640786 523.835383,127.215637 C520.020812,125.790488 516.818321,123.83068 514.226088,121.334388 C511.633856,118.838096 509.673742,115.88561 508.354855,112.473281 C507.032325,109.062777 506.372881,105.422351 506.372881,101.550179 L506.372881,77.4120576 C506.372881,73.4413475 507.032325,69.7735501 508.354855,66.4123149 C509.673742,63.0510797 511.633856,60.1259656 514.226088,57.6278489 C516.818321,55.1333817 520.020812,53.1735735 523.835383,51.7465996 C527.648132,50.3214505 532.094821,49.6079635 537.179095,49.6079635 C542.159533,49.6079635 546.58254,50.3214505 550.448118,51.7465996 C554.310052,53.1735735 557.539868,55.1333817 560.133922,57.6278489 C562.724333,60.1259656 564.682625,63.0510797 566.003334,66.4123149 C567.324043,69.7735501 567.987129,73.4413475 567.987129,77.4120576 L567.987129,101.550179 C567.987129,105.422351 567.324043,109.062777 566.003334,112.473281 C564.682625,115.88561 562.724333,118.838096 560.133922,121.334388 C557.539868,123.83068 554.310052,125.790488 550.448118,127.215637 C546.58254,128.640786 542.159533,129.354273 537.179095,129.354273" id="Fill-66"></path>
            </g>
        </g>
    </g>
</svg>