<?xml version="1.0" encoding="UTF-8" standalone="no"?>
<svg width="581px" height="160px" viewBox="0 0 581 160" version="1.1" xmlns="http://www.w3.org/2000/svg" xmlns:xlink="http://www.w3.org/1999/xlink">
    <!-- Generator: Sketch 40.3 (33839) - http://www.bohemiancoding.com/sketch -->
    <title>Benoo Logo</title>
    <desc>Created with Sketch.</desc>
    <defs></defs>
    <g id="Page-1" stroke="none" stroke-width="1" fill="none" fill-rule="evenodd">
        <g id="Benoo-Logo">
            <g id="Page-2" transform="translate(9.000000, 6.000000)">
                <path d="M0.0863244243,147.666276 L147.740844,147.666276 L147.740844,0.0431877971 L0.0863244243,0.0431877971 L0.0863244243,147.666276 Z M139.17344,46.3153134 L90.7928088,46.3153134 C89.5022986,45.5541284 88.175791,44.8541262 86.7808881,44.271091 L139.17344,12.9077528 L139.17344,46.3153134 Z M74.1511675,98.8154792 C60.7708991,98.8154792 49.8888568,87.9339538 49.8888568,74.5601326 C49.8888568,61.184512 60.7708991,50.3029866 74.1511675,50.3029866 C87.5260362,50.3029866 98.4098784,61.184512 98.4098784,74.5601326 C98.4098784,87.9339538 87.5260362,98.8154792 74.1511675,98.8154792 L74.1511675,98.8154792 Z M74.3221556,41.7446048 C74.2645596,41.7446048 74.2087635,41.7374069 74.1511675,41.7374069 C72.2540996,41.7374069 70.409228,41.931752 68.6021539,42.243064 L89.5094981,8.60876755 L129.677301,8.60876755 L74.3221556,41.7446048 Z M54.9303058,48.0050359 C54.4191414,48.3757312 53.9025774,48.741028 53.4112116,49.1405151 L53.4112116,8.60876755 L79.4230004,8.60876755 L54.9303058,48.0050359 Z M44.8420082,59.8474898 C44.586426,60.3567459 44.3272441,60.869601 44.0950602,61.3950525 L11.9978951,8.60876755 L44.8420082,8.60876755 L44.8420082,59.8474898 Z M41.3772495,73.412057 C41.3646503,73.7971482 41.3196535,74.1714425 41.3196535,74.5601326 C41.3196535,75.6866143 41.3772495,76.7987001 41.4870418,77.89639 L8.65552778,57.2760164 L8.65552778,19.6000619 L41.3772495,73.412057 Z M45.4935628,90.5306201 C46.0029274,91.4411628 46.5518892,92.3247132 47.1440479,93.1776722 L8.65552778,93.1776722 L8.65552778,67.3927578 L45.4935628,90.5306201 Z M8.65552778,101.745051 L55.7762469,101.745051 C56.7697777,102.42166 57.813705,103.029888 58.8846305,103.596728 L8.65552778,137.464959 L8.65552778,101.745051 Z M69.203312,106.970775 C70.8195995,107.213706 72.4628851,107.382858 74.1511675,107.382858 L74.1637666,107.382858 L57.0649572,139.098897 L21.54983,139.098897 L69.203312,106.970775 Z M84.8892198,105.541979 C87.9922038,104.464083 90.875603,102.934515 93.4764219,101.032453 L93.4764219,139.098897 L66.7986794,139.098897 L84.8892198,105.541979 Z M102.045625,91.7776677 C102.598187,90.8851199 103.111151,89.9673792 103.575519,89.0208467 L134.72955,139.098897 L102.045625,139.098897 L102.045625,91.7776677 Z M106.799094,77.9791666 C106.916086,76.8544844 106.979082,75.7136067 106.979082,74.5601326 C106.979082,72.7120548 106.788295,70.9125633 106.493116,69.1490616 L139.17344,89.5804886 L139.17344,130.022262 L106.799094,77.9791666 Z M100.83071,55.5071162 C100.67952,55.2947762 100.521131,55.0896341 100.364542,54.8826926 L139.17344,54.8826926 L139.17344,79.4799425 L100.83071,55.5071162 Z" id="Fill-9" fill="#F2913C"></path>
                <path d="M224.336311,79.0514836 L224.336311,110.990659 L241.966083,110.990659 C248.296242,110.990659 252.990315,109.585256 256.055502,106.770851 C259.118889,103.961845 260.652382,100.195509 260.652382,95.4736434 C260.652382,90.1507474 258.892105,86.082097 255.376949,83.2694918 C251.859994,80.458686 247.441302,79.0514836 242.117273,79.0514836 L224.336311,79.0514836 Z M241.665504,63.534468 C243.573371,63.534468 245.481238,63.2321534 247.390905,62.6293238 C249.298772,62.0264941 251.030252,61.1231493 252.588943,59.91749 C254.145835,58.7118307 255.402148,57.1840623 256.356081,55.3215886 C257.310015,53.4645133 257.788781,51.2799306 257.788781,48.7696399 C257.788781,47.0637219 257.536799,45.4063902 257.034634,43.7976447 C256.532469,42.1924983 255.727925,40.7834964 254.624602,39.5796366 C253.517679,38.3757767 252.06158,37.3950538 250.252706,36.6428664 C248.447432,35.8888794 246.186789,35.5127857 243.474378,35.5127857 L224.336311,35.5127857 L224.336311,63.534468 L241.665504,63.534468 Z M217.252004,126.356517 C214.541393,126.356517 212.28075,125.480165 210.473676,123.720262 C208.664802,121.965758 207.759465,119.829761 207.759465,117.317671 L207.759465,29.1857734 C207.759465,26.5747112 208.6882,24.4171208 210.547471,22.7058044 C212.404941,20.9998864 214.640386,20.1469274 217.252004,20.1469274 L242.720231,20.1469274 C247.941667,20.1469274 252.538547,20.9513001 256.507271,22.5564466 C260.474194,24.1633925 263.789564,26.299389 266.451578,28.9590375 C269.113593,31.622285 271.097055,34.6598267 272.405564,38.0734621 C273.710473,41.4888971 274.363827,45.0033041 274.363827,48.6184826 C274.363827,51.5336589 273.912059,54.1429216 273.008522,56.4516693 C272.103185,58.7658154 270.87207,60.8478271 269.315179,62.7049024 C267.756487,64.5637772 265.900817,66.195916 263.740967,67.6013189 C261.579317,69.0085213 259.24488,70.2627669 256.734055,71.3676547 C259.144087,72.2709994 261.555919,73.3255015 263.967751,74.5311608 C266.377783,75.7368202 268.562831,77.269987 270.521095,79.1270622 C272.481158,80.985937 274.086647,83.2460984 275.342959,85.9075464 C276.597472,88.5689944 277.227428,91.7594929 277.227428,95.4736434 C277.227428,99.7924231 276.421084,103.834081 274.815596,107.600417 C273.208308,111.366753 270.87207,114.63103 267.808684,117.39325 C264.743497,120.157269 261.050154,122.341852 256.734055,123.946998 C252.414356,125.553944 247.542095,126.356517 242.117273,126.356517 L217.252004,126.356517 Z" id="Fill-11" fill="#857F7E"></path>
                <path d="M326.953826,73.6283559 C326.953826,69.6118908 325.974694,66.7488997 324.01463,65.0411823 C322.056367,63.3334648 319.216164,62.4805058 315.501223,62.4805058 C311.282317,62.4805058 308.017344,63.5350078 305.706305,65.6440119 C303.393466,67.7512165 302.241546,70.6142076 302.241546,74.2311856 L302.241546,83.1188743 C304.853164,83.4193894 307.439584,83.6461253 310.000806,83.7954831 C312.563828,83.9466404 314.3943,84.0222191 315.501223,84.0222191 C319.819122,84.0222191 322.808714,83.0954809 324.466399,81.2366062 C326.124083,79.3777314 326.953826,76.8422478 326.953826,73.6283559 M315.652412,96.6780431 C313.542959,96.6780431 311.38131,96.604264 309.172864,96.4531067 C306.962618,96.3019494 304.651578,96.0248277 302.241546,95.6235411 L302.241546,102.553383 C302.241546,105.970617 303.393466,108.680652 305.706305,110.688884 C308.017344,112.698916 311.582896,113.703033 316.40656,113.703033 C319.216164,113.703033 321.728789,113.350332 323.939035,112.648531 C326.149282,111.946729 328.508917,111.041585 331.021542,109.936697 C331.221328,109.735154 331.599302,109.558804 332.151864,109.409446 C332.702625,109.258288 333.433374,109.18271 334.338711,109.18271 C336.94853,109.18271 338.832998,109.936697 339.986718,111.442871 C341.142238,112.949046 341.719997,114.45522 341.719997,115.961394 C341.719997,118.273741 340.740866,120.156009 338.782602,121.611798 C336.822538,123.069386 334.462903,124.248053 331.700095,125.151398 C328.937287,126.056542 326.02329,126.680966 322.959904,127.035465 C319.894717,127.386366 317.257901,127.562716 315.049454,127.562716 C310.427376,127.562716 306.309263,126.907702 302.693315,125.60487 C299.077367,124.298439 296.035578,122.491749 293.57515,120.179403 C291.112921,117.870655 289.230252,115.131829 287.925343,111.970122 C286.618634,108.806616 285.967079,105.416374 285.967079,101.799396 L285.967079,75.1345303 C285.967079,71.4185803 286.618634,67.9779525 287.925343,64.8144463 C289.230252,61.6509402 291.139919,58.9157131 293.650744,56.6033664 C296.16157,54.2946188 299.277153,52.4609369 302.993894,51.1041203 C306.708835,49.7473036 310.979938,49.0724943 315.803602,49.0724943 C324.943366,49.0724943 331.77569,51.3560491 336.295175,55.9249581 C340.81646,60.4974661 343.077103,66.5455572 343.077103,74.0800283 C343.077103,81.2132128 340.915453,86.7610452 336.597554,90.7271246 C332.276055,94.6950034 325.296141,96.6780431 315.652412,96.6780431" id="Fill-12" fill="#857F7E"></path>
                <path d="M372.609807,119.879068 C372.609807,121.988072 371.931254,123.771368 370.575948,125.227156 C369.218843,126.681146 367.184984,127.411739 364.472573,127.411739 C361.761962,127.411739 359.726304,126.681146 358.370998,125.227156 C357.013893,123.771368 356.33534,121.988072 356.33534,119.879068 L356.33534,71.5177323 C356.33534,69.9125858 356.284943,68.6313479 356.18595,67.6758178 C356.083357,66.7238868 355.932168,65.9698999 355.732382,65.4156565 C355.530796,64.8668115 355.305812,64.4367331 355.055629,64.136218 C354.801847,63.8339034 354.576862,63.484802 354.377076,63.0817159 C353.774118,62.1783712 353.32235,61.4243842 353.019971,60.823354 C352.719392,60.2205244 352.568202,59.4665374 352.568202,58.5631927 C352.568202,56.5549601 353.297151,54.8976284 354.75325,53.589398 C356.209349,52.2847667 358.093817,51.6315512 360.404856,51.6315512 C363.214461,51.6315512 365.577696,53.0891394 367.485563,56.0007167 C370.901726,53.6919691 374.391683,52.007645 377.960834,50.9531429 C381.524586,49.8986409 384.965946,49.3713899 388.281316,49.3713899 C397.021507,49.3713899 403.576651,52.0346373 407.946746,57.3575333 C412.316842,62.6822288 414.50009,69.6624565 414.50009,78.2982164 L414.50009,119.879068 C414.50009,121.988072 413.798139,123.771368 412.392437,125.227156 C410.983135,126.681146 408.974475,127.411739 406.364656,127.411739 C403.751238,127.411739 401.742578,126.681146 400.336876,125.227156 C398.929374,123.771368 398.225623,121.988072 398.225623,119.879068 L398.225623,78.2982164 C398.225623,73.4773786 397.196095,69.7614285 395.138838,67.1485668 C393.077982,64.5393041 390.138786,63.2328732 386.323052,63.2328732 C382.003353,63.2328732 377.282281,64.7912329 372.158038,67.9025538 C372.458617,69.3097562 372.609807,70.5154155 372.609807,71.5177323 L372.609807,119.879068 Z" id="Fill-13" fill="#857F7E"></path>
                <path d="M459.404623,113.25064 C464.123895,113.25064 467.666048,112.095367 470.027484,109.78482 C472.387119,107.476072 473.567837,104.26218 473.567837,100.143144 L473.567837,76.1883126 C473.567837,72.173647 472.387119,69.0083413 470.027484,66.6977942 C467.666048,64.3890465 464.123895,63.2319735 459.404623,63.2319735 C454.681752,63.2319735 451.139599,64.3890465 448.781763,66.6977942 C446.418528,69.0083413 445.23961,72.173647 445.23961,76.1883126 L445.23961,100.143144 C445.23961,104.26218 446.418528,107.476072 448.781763,109.78482 C451.139599,112.095367 454.681752,113.25064 459.404623,113.25064 M459.404623,127.561997 C454.379373,127.561997 449.985879,126.858395 446.218742,125.452993 C442.451604,124.04759 439.287424,122.114936 436.724403,119.653231 C434.164981,117.191527 432.228316,114.27995 430.925206,110.9149 C429.616697,107.551651 428.965143,103.961665 428.965143,100.143144 L428.965143,76.3394699 C428.965143,72.4237763 429.616697,68.8067983 430.925206,65.4921349 C432.228316,62.1774714 434.164981,59.2928865 436.724403,56.8293826 C439.287424,54.3694776 442.451604,52.4368237 446.218742,51.0296213 C449.985879,49.6242184 454.379373,48.9206172 459.404623,48.9206172 C464.323681,48.9206172 468.693777,49.6242184 472.513111,51.0296213 C476.330645,52.4368237 479.521823,54.3694776 482.083044,56.8293826 C484.642466,59.2928865 486.577331,62.1774714 487.88404,65.4921349 C489.18895,68.8067983 489.842304,72.4237763 489.842304,76.3394699 L489.842304,100.143144 C489.842304,103.961665 489.18895,107.551651 487.88404,110.9149 C486.577331,114.27995 484.642466,117.191527 482.083044,119.653231 C479.521823,122.114936 476.330645,124.04759 472.513111,125.452993 C468.693777,126.858395 464.323681,127.561997 459.404623,127.561997" id="Fill-14" fill="#857F7E"></path>
                <path d="M530.82833,113.25064 C535.549402,113.25064 539.091555,112.095367 541.451191,109.78482 C543.810826,107.476072 544.993344,104.26218 544.993344,100.143144 L544.993344,76.1883126 C544.993344,72.173647 543.810826,69.0083413 541.451191,66.6977942 C539.091555,64.3890465 535.549402,63.2319735 530.82833,63.2319735 C526.105459,63.2319735 522.563306,64.3890465 520.20547,66.6977942 C517.844034,69.0083413 516.663317,72.173647 516.663317,76.1883126 L516.663317,100.143144 C516.663317,104.26218 517.844034,107.476072 520.20547,109.78482 C522.563306,112.095367 526.105459,113.25064 530.82833,113.25064 M530.82833,127.561997 C525.80488,127.561997 521.411386,126.858395 517.644248,125.452993 C513.875311,124.04759 510.711131,122.114936 508.149909,119.653231 C505.588688,117.191527 503.652023,114.27995 502.348913,110.9149 C501.042204,107.551651 500.39065,103.961665 500.39065,100.143144 L500.39065,76.3394699 C500.39065,72.4237763 501.042204,68.8067983 502.348913,65.4921349 C503.652023,62.1774714 505.588688,59.2928865 508.149909,56.8293826 C510.711131,54.3694776 513.875311,52.4368237 517.644248,51.0296213 C521.411386,49.6242184 525.80488,48.9206172 530.82833,48.9206172 C535.749188,48.9206172 540.119283,49.6242184 543.938618,51.0296213 C547.754352,52.4368237 550.94553,54.3694776 553.508551,56.8293826 C556.067973,59.2928865 558.002838,62.1774714 559.307747,65.4921349 C560.612657,68.8067983 561.267811,72.4237763 561.267811,76.3394699 L561.267811,100.143144 C561.267811,103.961665 560.612657,107.551651 559.307747,110.9149 C558.002838,114.27995 556.067973,117.191527 553.508551,119.653231 C550.94553,122.114936 547.754352,124.04759 543.938618,125.452993 C540.119283,126.858395 535.749188,127.561997 530.82833,127.561997" id="Fill-15" fill="#857F7E"></path>
            </g>
        </g>
    </g>
</svg>